<?xml version="1.0" standalone="no"?>
<!DOCTYPE svg PUBLIC "-//W3C//DTD SVG 20010904//EN"
 "http://www.w3.org/TR/2001/REC-SVG-20010904/DTD/svg10.dtd">
<svg version="1.0" xmlns="http://www.w3.org/2000/svg"
 width="980.000000pt" height="980.000000pt" viewBox="0 0 980.000000 980.000000"
 preserveAspectRatio="xMidYMid meet">

<g transform="translate(0.000000,980.000000) scale(0.100000,-0.100000)"
fill="#000000" stroke="none">
<path d="M4555 8059 c-648 -64 -1252 -295 -1765 -672 -188 -139 -390 -320
-390 -351 0 -27 369 -406 395 -406 8 0 60 42 117 93 307 272 639 468 1018 599
674 232 1423 208 2090 -67 296 -122 642 -347 885 -576 39 -36 79 -69 89 -73
16 -5 57 31 213 186 134 134 193 199 193 214 0 44 -317 314 -555 474 -450 301
-941 486 -1505 566 -135 19 -643 28 -785 13z"/>
<path d="M4640 7070 c-310 -32 -607 -118 -886 -255 -273 -135 -660 -426 -652
-491 2 -14 74 -97 181 -209 145 -150 184 -185 205 -185 18 0 48 19 94 59 263
231 567 386 895 455 427 90 851 40 1238 -144 191 -91 323 -178 498 -332 42
-37 83 -68 89 -68 19 0 398 383 398 402 0 19 -106 124 -215 214 -187 153 -492
326 -730 412 -131 48 -359 105 -505 127 -123 19 -486 28 -610 15z"/>
<path d="M4730 6104 c-244 -31 -470 -114 -657 -243 -111 -75 -213 -167 -213
-190 0 -27 367 -401 393 -401 11 0 42 18 69 41 329 277 800 275 1128 -5 36
-31 72 -56 80 -56 19 0 400 381 400 400 0 25 -133 144 -237 214 -163 108 -348
185 -535 221 -81 16 -355 28 -428 19z"/>
<path d="M2030 5461 c-14 -27 -14 -3685 0 -3712 10 -18 25 -19 328 -19 234 0
321 3 330 12 17 17 17 3709 0 3726 -9 9 -96 12 -330 12 -303 0 -318 -1 -328
-19z m563 -81 c4 0 7 -801 7 -1780 l0 -1780 -240 0 -240 0 0 1779 c0 1177 3
1780 10 1783 7 2 357 1 463 -2z"/>
<path d="M6422 5468 c-9 -9 -12 -89 -12 -299 0 -286 0 -288 22 -303 20 -14 90
-16 560 -16 l538 0 0 -1533 c0 -1179 3 -1536 12 -1545 16 -16 570 -17 599 -2
19 11 19 38 19 1545 l0 1535 583 0 c511 0 585 2 605 16 22 15 22 17 22 295 0
174 -4 288 -10 300 -11 19 -37 19 -1468 19 -1121 0 -1461 -3 -1470 -12z m2848
-303 l0 -215 -587 0 c-532 0 -588 -2 -605 -17 -17 -15 -18 -77 -18 -1545 l0
-1528 -220 0 -220 0 0 1533 c0 1179 -3 1536 -12 1545 -9 9 -146 12 -555 12
l-543 0 0 214 0 215 23 3 c12 2 633 2 1380 0 l1357 -2 0 -215z"/>
<path d="M4815 4824 c-389 -55 -655 -183 -906 -433 -225 -226 -363 -479 -431
-795 -19 -85 -22 -133 -22 -306 0 -174 3 -221 22 -306 68 -315 205 -569 426
-789 174 -174 357 -290 571 -363 735 -251 1534 107 1852 830 346 786 -13 1712
-795 2048 -95 41 -230 81 -332 100 -67 12 -332 22 -385 14z m312 -105 c316
-43 581 -175 808 -403 207 -207 330 -436 398 -736 30 -137 30 -442 -1 -580
-66 -299 -191 -530 -397 -735 -205 -206 -437 -332 -720 -391 -123 -26 -392
-26 -519 -1 -178 36 -362 113 -515 215 -114 76 -310 271 -383 382 -108 166
-184 346 -225 540 -26 121 -26 439 0 560 60 283 186 524 377 723 234 245 515
386 855 430 65 9 248 6 322 -4z"/>
<path d="M4795 4226 c-442 -87 -755 -475 -755 -936 0 -548 442 -979 969 -947
200 12 394 96 555 238 118 104 235 305 278 475 32 129 32 342 -1 469 -87 336
-325 586 -648 681 -110 32 -291 41 -398 20z m380 -116 c157 -49 307 -151 405
-273 60 -75 142 -238 165 -327 23 -91 30 -263 16 -356 -53 -327 -275 -585
-586 -684 -97 -31 -263 -38 -368 -16 -218 45 -400 167 -523 352 -101 152 -144
298 -144 488 0 186 48 343 151 492 119 172 298 292 504 340 90 21 290 12 380
-16z"/>
</g>
</svg>
